<svg width="110" height="110" viewBox="0 0 110 110" fill="none" xmlns="http://www.w3.org/2000/svg">
<path d="M52.8349 8.75001C53.7972 7.08334 56.2028 7.08334 57.1651 8.75L96.1362 76.25C97.0984 77.9167 95.8956 80 93.9711 80H16.0289C14.1044 80 12.9015 77.9167 13.8638 76.25L52.8349 8.75001Z" fill="#CF1313" stroke="white" stroke-width="5"/>
<path d="M57.166 59.959H52.2734L51.8926 29.3438H57.5762L57.166 59.959ZM51.6875 69.2754C51.6875 68.3965 51.9512 67.6641 52.4785 67.0781C53.0254 66.4727 53.8262 66.1699 54.8809 66.1699C55.9355 66.1699 56.7363 66.4727 57.2832 67.0781C57.8301 67.6641 58.1035 68.3965 58.1035 69.2754C58.1035 70.1543 57.8301 70.8867 57.2832 71.4727C56.7363 72.0391 55.9355 72.3223 54.8809 72.3223C53.8262 72.3223 53.0254 72.0391 52.4785 71.4727C51.9512 70.8867 51.6875 70.1543 51.6875 69.2754Z" fill="white"/>
</svg>
