<svg width="23" height="23" viewBox="0 0 23 23" fill="none" xmlns="http://www.w3.org/2000/svg">
<path d="M6.48434 22.9302C6.77363 23.0719 7.11365 22.9912 7.30951 22.7473L18.0908 9.22583C18.2527 9.02314 18.2836 8.74611 18.1717 8.51252C18.0592 8.27955 17.8236 8.13086 17.5643 8.13086H13.264L16.8194 0.975209C16.924 0.766592 16.9129 0.518533 16.7898 0.319799C16.6668 0.121064 16.4503 0 16.2167 0H8.13077C7.82148 0 7.55235 0.210594 7.47733 0.510627L4.78202 11.3368C4.73135 11.5381 4.77677 11.7514 4.90443 11.9145C5.0321 12.0784 5.22819 12.1738 5.43545 12.1738H8.61507L6.12968 22.1629C6.05268 22.4703 6.20007 22.7895 6.48434 22.9302V22.9302Z" fill="black"/>
</svg>
