<svg width="29" height="29" viewBox="0 0 29 29" fill="none" xmlns="http://www.w3.org/2000/svg">
<g clip-path="url(#clip0)">
<path d="M24.1621 15.3818H21.9834C22.2055 15.9898 22.3268 16.646 22.3268 17.3298V25.564C22.3268 25.8491 22.2772 26.1228 22.1869 26.3773H25.7887C27.1341 26.3773 28.2287 25.2827 28.2287 23.9373V19.4485C28.2288 17.2062 26.4044 15.3818 24.1621 15.3818Z" fill="black"/>
<path d="M5.9596 17.3298C5.9596 16.6459 6.08092 15.9898 6.30299 15.3818H4.12433C1.88194 15.3818 0.0576172 17.2062 0.0576172 19.4485V23.9373C0.0576172 25.2827 1.15218 26.3773 2.49764 26.3773H6.09952C6.00923 26.1227 5.9596 25.8491 5.9596 25.564V17.3298Z" fill="black"/>
<path d="M16.6344 13.2627H11.6536C9.41124 13.2627 7.58691 15.087 7.58691 17.3294V25.5635C7.58691 26.0127 7.95105 26.3769 8.40025 26.3769H19.8877C20.3369 26.3769 20.7011 26.0127 20.7011 25.5635V17.3294C20.7011 15.087 18.8767 13.2627 16.6344 13.2627Z" fill="black"/>
<path d="M14.1436 2.47998C11.4469 2.47998 9.25293 4.67394 9.25293 7.37076C9.25293 9.19998 10.2625 10.7976 11.7535 11.6363C12.4607 12.0341 13.2761 12.2615 14.1436 12.2615C15.0112 12.2615 15.8266 12.0341 16.5338 11.6363C18.0248 10.7976 19.0344 9.19992 19.0344 7.37076C19.0344 4.674 16.8404 2.47998 14.1436 2.47998Z" fill="black"/>
<path d="M5.55508 7.03857C3.53823 7.03857 1.89746 8.67934 1.89746 10.6962C1.89746 12.713 3.53823 14.3538 5.55508 14.3538C6.06667 14.3538 6.55384 14.2478 6.99639 14.0573C7.76153 13.7279 8.39242 13.1448 8.7828 12.4144C9.05681 11.9017 9.21269 11.3169 9.21269 10.6962C9.21269 8.6794 7.57192 7.03857 5.55508 7.03857Z" fill="black"/>
<path d="M22.7309 7.03857C20.714 7.03857 19.0732 8.67934 19.0732 10.6962C19.0732 11.317 19.2291 11.9018 19.5031 12.4144C19.8935 13.1449 20.5244 13.728 21.2895 14.0573C21.7321 14.2478 22.2193 14.3538 22.7309 14.3538C24.7477 14.3538 26.3885 12.713 26.3885 10.6962C26.3885 8.67934 24.7477 7.03857 22.7309 7.03857Z" fill="black"/>
</g>
<defs>
<clipPath id="clip0">
<rect width="28.1714" height="28.1714" fill="white" transform="translate(0.0576172 0.342773)"/>
</clipPath>
</defs>
</svg>
