<svg width="28" height="17" viewBox="0 0 28 17" fill="none" xmlns="http://www.w3.org/2000/svg">
<path d="M27.691 4.18665C27.2121 3.96905 27.3248 3.96905 26.3106 2.39145C26.3106 2.39145 26.4233 2.11945 26.2824 1.54825C26.2824 1.52105 26.2543 1.49385 26.2543 1.43945C26.6768 1.27625 26.8177 0.841047 27.0431 0.596247C27.2966 0.269847 26.367 -0.00215314 25.2401 0.541847C25.1556 0.460247 24.902 0.161047 24.902 0.161047C24.6767 0.025047 24.4231 -0.00215314 24.1696 0.133847C23.7188 0.405847 22.93 1.08585 21.2679 1.08585C19.6058 1.08585 19.2396 0.514647 17.3803 0.514647C15.521 0.514647 14.0279 1.05865 11.6051 1.05865C9.18238 1.05865 6.11169 0.786647 5.18204 0.732247C4.81581 0.705047 4.50592 0.705047 4.22421 0.705047C2.44941 0.705047 1.68878 0.949847 1.23804 1.76585C0.533751 3.01705 0.364722 5.08425 0.646436 5.79145C0.928151 6.52585 0.646436 10.1162 0.646436 10.1162C0.646436 10.1162 0.0830078 11.0138 0.0830078 12.1562C0.0830078 12.1562 0.815465 12.265 0.984494 11.2314C1.09718 10.5514 1.29438 5.11145 1.29438 5.11145H1.51975C1.68878 6.44425 2.47758 7.39625 1.57609 9.46345C1.20987 10.2794 2.13952 13.6794 2.13952 14.1962C2.13952 14.5498 2.16769 15.3386 2.16769 15.8282C2.22404 16.1274 2.42124 16.3178 2.67478 16.3178H3.68895C3.51992 15.2026 2.98467 15.4474 2.98467 14.849C2.98467 14.2506 3.12552 11.3674 3.29455 10.2794C3.32272 10.0618 3.43541 9.87145 3.60444 9.70825C3.60444 9.70825 3.85798 9.40905 4.50592 9.16425C4.56226 9.13705 4.59044 9.21865 4.53409 9.24585C4.30872 9.38185 4.05518 9.54505 3.88615 9.76265C3.82981 10.1162 3.82981 10.497 3.99884 10.8778C4.33689 11.6122 5.49192 13.7882 5.66095 14.4682C5.77364 14.9306 5.91449 15.5562 5.97084 15.9642C6.02718 16.1818 6.22438 16.345 6.44975 16.345H7.60478C7.49209 15.257 6.78781 15.6378 6.56244 14.7674C6.36524 14.033 5.82998 11.3674 5.99901 10.5786C6.05535 10.3338 6.36524 9.87145 6.75964 9.38185C7.12586 9.51785 7.57661 9.70825 8.16821 9.89865C10.0839 10.5514 13.3236 9.78985 14.9575 9.65385C15.0139 9.65385 15.042 9.65385 15.0702 9.65385C14.9857 10.9866 14.8167 12.945 14.6195 13.3258C14.3378 13.897 14.056 14.1418 14.056 14.1418C14.056 14.1418 13.9997 14.9306 13.9997 15.0938C13.9997 15.2026 13.9997 15.7194 13.9997 16.0458C13.9997 16.209 14.1406 16.345 14.3096 16.345H15.4083C15.4364 15.6922 14.704 15.393 14.8448 15.0938C14.9857 14.7946 15.4364 13.7066 15.5491 13.2442C15.6055 12.9994 15.9717 12.7274 16.2252 12.5642C16.2534 12.537 16.3379 11.9114 16.3661 11.5306C16.3661 11.449 16.507 11.449 16.507 11.5306C16.507 11.5578 16.507 11.6122 16.507 11.6394C16.507 11.857 16.507 12.0746 16.507 12.2922C16.5351 12.945 16.5351 13.5162 16.5633 13.7882C16.9577 14.1418 16.9577 15.4474 16.9295 16.0458C16.9295 16.209 17.0704 16.3722 17.2394 16.3722H18.4508C18.3944 15.6922 17.831 15.6106 17.831 15.121C17.831 12.945 18.0564 12.7818 18.3663 12.0202C18.4226 11.857 18.5071 11.6122 18.6198 11.3402L19.3804 8.75625C19.4086 8.67465 19.5213 8.70185 19.4931 8.78345L19.3241 10.4154C20.6763 10.3066 21.3524 9.43625 21.606 8.78345C21.9159 7.96745 22.5638 6.17225 22.8455 5.76425C23.2963 5.11145 23.2963 4.64905 24.1696 4.92105C24.1696 4.92105 24.1696 4.92105 24.1978 4.92105C24.7048 5.11145 25.381 5.27465 26.1979 5.24745C26.1979 5.24745 26.1979 5.68265 26.7895 5.60105C27.353 5.51945 27.4375 5.51945 27.6065 5.49225C27.7755 5.46505 27.7474 5.24745 27.86 5.00265C27.9164 4.75785 28.1699 4.40425 27.691 4.18665Z" fill="black"/>
</svg>
