<svg width="29" height="29" viewBox="0 0 29 29" fill="none" xmlns="http://www.w3.org/2000/svg">
<g clip-path="url(#clip0)">
<path d="M14.1719 0.743164C10.5291 0.743164 7.58008 3.69214 7.58008 7.335C7.58008 10.9779 10.5291 13.9268 14.1719 13.9268C17.8148 13.9268 20.7637 10.9779 20.7637 7.335C20.7637 3.69214 17.8148 0.743164 14.1719 0.743164Z" fill="black"/>
<path d="M16.7393 14.6899H11.6047C6.43526 14.6899 2.2373 18.8879 2.2373 24.0573V27.8736C2.2373 28.4634 2.68833 28.9145 3.27812 28.9145H25.0659C25.6557 28.9145 26.1067 28.4634 26.1067 27.8736V24.0573C26.1067 18.8879 21.9087 14.6899 16.7393 14.6899Z" fill="black"/>
</g>
<defs>
<clipPath id="clip0">
<rect width="28.1714" height="28.1714" fill="white" transform="translate(0.0859375 0.743164)"/>
</clipPath>
</defs>
</svg>
