<svg width="30" height="29" viewBox="0 0 30 29" fill="none" xmlns="http://www.w3.org/2000/svg">
<path d="M28.7472 22.225L27.5807 21.0585L25.6071 23.032C25.2813 21.6978 24.0464 20.8919 22.7776 21.0214L22.3892 21.0603V24.1166H20.7393V21.2252L15.7896 21.72V24.9416H14.1397V21.885L9.92465 22.3064C8.56474 22.4426 7.54004 23.5752 7.54004 24.9416C7.54004 26.3079 8.5648 27.4406 9.92465 27.5768L17.4395 28.3281V24.9416H19.0894V28.4931L22.7776 28.9014C24.11 29.0358 25.3037 28.1092 25.6091 26.8531L27.5807 28.8246L28.7472 27.6581L26.8556 25.7665H29.0439V24.1166H26.8556L28.7472 22.225Z" fill="black"/>
<path d="M22.6135 19.3798C23.6099 19.2773 24.6081 19.5371 25.4617 20.1226C25.6038 19.5467 25.6893 18.9518 25.6893 18.3422C25.6893 16.9573 25.3002 15.3872 24.5639 14.2158C23.8268 13.0436 23.8405 11.6507 23.9806 10.6872C24.0878 9.95246 24.0483 9.20324 23.8647 8.45803C23.3281 6.28042 21.4856 4.56287 19.2799 4.18504C19.1908 4.16992 19.1026 4.17981 19.0134 4.16882C18.6571 2.25421 16.981 0.743164 14.9649 0.743164H14.14V2.39307H14.9649C16.0813 2.39307 17.0163 3.1957 17.3236 4.21309C16.309 4.38149 15.3442 4.78258 14.5436 5.45624C13.4197 6.40455 12.7422 7.73674 12.5664 9.17568C13.3066 9.03231 13.9777 8.99029 14.8377 9.14357C18.8622 9.85314 21.4349 14.6579 20.5685 19.5842L22.6135 19.3798Z" fill="black"/>
<path d="M9.76066 20.6649L18.8298 19.7582C18.8647 19.6045 18.9153 19.46 18.9431 19.3026C19.6537 15.2705 17.6807 11.3204 14.5461 10.7678C13.4101 10.564 12.2444 10.8024 11.1721 11.4453C11.0514 11.5172 10.9179 11.5619 10.7859 11.6097C10.639 10.6162 10.1942 9.69468 9.48754 8.94705C8.55628 7.96271 7.24554 7.39795 5.89047 7.39795V9.04786C6.80727 9.04786 7.65878 9.41441 8.28877 10.0806C8.68162 10.4965 8.93719 10.9983 9.07353 11.5366C9.00291 11.5041 8.92778 11.4874 8.85992 11.4469C7.78522 10.8017 6.61786 10.5632 5.48437 10.7678C2.77291 11.2459 0.884918 14.266 0.885742 17.6824C0.886677 21.6016 3.34108 24.7474 5.94112 25.4841C5.91857 25.3049 5.89047 25.1272 5.89047 24.942C5.89047 22.7249 7.55407 20.8857 9.76066 20.6649Z" fill="black"/>
</svg>
