<svg width="25" height="21" viewBox="0 0 25 21" fill="none" xmlns="http://www.w3.org/2000/svg">
<path d="M23.0837 6.55458L24.0858 5.98349C22.5775 3.08003 19.702 0.900462 16.1939 0.200684V1.62458C16.1939 1.62458 16.5108 1.74245 16.6649 1.80781C18.9741 2.78457 20.5748 4.6529 20.8306 6.73623L21.6619 15.4389L21.6625 15.4773C21.6625 16.1863 20.941 16.7637 20.0542 16.7637C19.1674 16.7637 18.4453 16.1861 18.4453 15.4773V10.5011C18.4453 8.92932 16.9691 7.63028 15.0676 7.43939V2.13662C15.0676 1.14589 14.054 0.335005 12.8155 0.335005H3.80744C2.56903 0.335005 1.55542 1.14589 1.55542 2.13662V18.8655H0.429688V20.6671H3.80744H12.8153H16.1936V18.8655H15.0673V9.28022C15.7178 9.44474 16.1936 9.92681 16.1936 10.5011V15.4773C16.1936 17.1799 17.925 18.5655 20.0539 18.5655C22.1823 18.5655 23.9142 17.1799 23.9142 15.4773C23.9142 15.438 23.9137 15.3995 23.912 15.3607L23.0837 6.55458ZM3.80744 2.13662H12.8153V7.38057H3.80744V2.13662Z" fill="black"/>
</svg>
