<svg width="391" height="133" viewBox="0 0 391 133" fill="none" xmlns="http://www.w3.org/2000/svg">
<path d="M341.625 117V118H342.625V117H341.625ZM311.812 117H310.812V118H311.812V117ZM311.812 112.844L311.069 112.175L310.812 112.46V112.844H311.812ZM327.562 95.3438L328.306 96.0127L328.313 96.0052L327.562 95.3438ZM332.375 88.9062L331.494 88.4328L331.492 88.4368L332.375 88.9062ZM319.094 78.0938L318.378 77.3958L318.378 77.3959L319.094 78.0938ZM316.719 84.9062V85.9062H317.719V84.9062H316.719ZM310.938 84.9062H309.938V85.9062H310.938V84.9062ZM314.969 74.75L314.279 74.0264L314.276 74.0291L314.969 74.75ZM335.844 74.2188L335.172 74.9595L335.175 74.9627L335.844 74.2188ZM330.969 99.0625L330.234 98.3844L330.234 98.3847L330.969 99.0625ZM318.781 112.281L318.046 111.603L316.499 113.281H318.781V112.281ZM341.625 112.281H342.625V111.281H341.625V112.281ZM341.625 116H311.812V118H341.625V116ZM312.812 117V112.844H310.812V117H312.812ZM312.556 113.513L328.306 96.0127L326.819 94.6748L311.069 112.175L312.556 113.513ZM328.313 96.0052C330.66 93.3429 332.327 91.1268 333.258 89.3757L331.492 88.4368C330.673 89.9773 329.131 92.0529 326.812 94.6823L328.313 96.0052ZM333.256 89.3797C334.224 87.5777 334.719 85.6973 334.719 83.75H332.719C332.719 85.3443 332.317 86.9014 331.494 88.4328L333.256 89.3797ZM334.719 83.75C334.719 81.1567 333.926 78.9512 332.289 77.2193L330.836 78.5932C332.074 79.903 332.719 81.5933 332.719 83.75H334.719ZM332.289 77.2193C330.635 75.469 328.44 74.625 325.812 74.625V76.625C327.977 76.625 329.615 77.3018 330.836 78.5932L332.289 77.2193ZM325.812 74.625C322.74 74.625 320.215 75.5109 318.378 77.3958L319.81 78.7917C321.181 77.385 323.135 76.625 325.812 76.625V74.625ZM318.378 77.3959C316.564 79.2567 315.719 81.8064 315.719 84.9062H317.719C317.719 82.1727 318.456 80.1808 319.81 78.7916L318.378 77.3959ZM316.719 83.9062H310.938V85.9062H316.719V83.9062ZM311.938 84.9062C311.938 80.9539 313.195 77.8416 315.662 75.4709L314.276 74.0291C311.367 76.825 309.938 80.4836 309.938 84.9062H311.938ZM315.659 75.4736C318.144 73.1033 321.492 71.875 325.812 71.875V69.875C321.091 69.875 317.21 71.2301 314.279 74.0264L315.659 75.4736ZM325.812 71.875C329.864 71.875 332.944 72.9391 335.172 74.9595L336.515 73.478C333.827 71.04 330.22 69.875 325.812 69.875V71.875ZM335.175 74.9627C337.397 76.9582 338.531 79.6222 338.531 83.0625H340.531C340.531 79.1278 339.207 75.896 336.512 73.4748L335.175 74.9627ZM338.531 83.0625C338.531 87.1465 335.904 92.2379 330.234 98.3844L331.704 99.7406C337.45 93.5121 340.531 87.9368 340.531 83.0625H338.531ZM330.234 98.3847L318.046 111.603L319.516 112.959L331.704 99.7403L330.234 98.3847ZM318.781 113.281H341.625V111.281H318.781V113.281ZM340.625 112.281V117H342.625V112.281H340.625Z" fill="white"/>
<path d="M121.062 52.7188C119.062 52.7188 111.062 52.7188 97.0625 52.7188H72.9688V97.4375H127.812L129.594 99.4062L127.812 101H69.4062V5H127.812L129.594 6.875L127.812 8.5625H72.9688V49.1562H121.062L122.562 51.0312L121.062 52.7188ZM72.125 10.7188C72.1875 10.6563 72.2188 10.5937 72.2188 10.5312L86.9375 33.4062L86.8438 33.5938L72.125 10.7188ZM71.375 51.3125C71.375 51.25 71.3438 51.1875 71.2812 51.125L86.6562 33.4062L86.8438 33.5938L71.375 51.3125ZM86.8438 33.5938C86.7812 33.5312 86.7188 33.4688 86.6562 33.4062L96.3125 8.375L96.5 8.5625L86.8438 33.5938ZM96.5 8.5625C96.5625 8.5 96.5938 8.4375 96.5938 8.375L112.156 31.9062L112.062 32.0938L96.5 8.5625ZM86.8438 33.5938C86.8438 33.5312 86.8125 33.4688 86.75 33.4062L111.969 31.9062L112.062 32.0938L86.8438 33.5938ZM112.062 32.0938C112 32.0312 111.938 31.9687 111.875 31.9062L127.719 7.0625L127.812 7.25L112.062 32.0938ZM112.062 32.0938C112 32.0312 111.938 31.9687 111.875 31.9062L105.875 50.375L106.062 50.4688L112.062 32.0938ZM86.8438 33.5938C86.8438 33.5312 86.875 33.4688 86.9375 33.4062L106.156 50.375L106.062 50.4688L86.8438 33.5938ZM106.062 52.7188C106.125 52.6562 106.188 52.5938 106.25 52.5312L114.219 66.6875L114.125 66.875L106.062 52.7188ZM114.125 66.875C114.062 66.8125 114 66.75 113.938 66.6875L107.281 78.875L107.469 79.0625L114.125 66.875ZM107.469 79.0625C107.469 79 107.5 78.9375 107.562 78.875L126.406 98.4688L126.312 98.6562L107.469 79.0625ZM114.125 66.875C114.188 66.8125 114.219 66.75 114.219 66.6875L126.406 99.125L126.312 99.3125L114.125 66.875ZM107.469 79.0625C107.406 79 107.344 78.9375 107.281 78.875L101.75 98.4688L101.938 98.6562L107.469 79.0625ZM86.8438 78.5C86.8438 78.4375 86.875 78.375 86.9375 78.3125L102.031 98.4688L101.938 98.6562L86.8438 78.5ZM86.8438 78.5C86.8438 78.4375 86.8438 78.375 86.8438 78.3125L107.469 78.875V79.0625L86.8438 78.5ZM86.8438 78.5C86.7812 78.4375 86.75 78.375 86.75 78.3125L114.031 66.6875L114.125 66.875L86.8438 78.5ZM86.8438 78.5C86.7812 78.4375 86.7188 78.375 86.6562 78.3125L105.969 52.5312L106.062 52.7188L86.8438 78.5ZM86.8438 78.5C86.8438 78.4375 86.875 78.375 86.9375 78.3125L72.2188 53.375L72.125 53.5625L86.8438 78.5ZM86.8438 78.5C86.7812 78.4375 86.7188 78.375 86.6562 78.3125L75.6875 99.125L75.875 99.3125L86.8438 78.5Z" fill="#41DE28"/>
<path d="M226.531 80.8438C225.094 87.2812 221.344 92.25 215.281 95.75C209.281 99.1875 203.625 100.938 198.312 101C187.875 101 179.625 97.3125 173.562 89.9375C167.5 82.5 164.5 72.5312 164.562 60.0312V45.9688C164.5 33.5312 167.5 23.5938 173.562 16.1562C179.625 8.71875 187.875 5 198.312 5C203.562 5 208.906 6.34375 214.344 9.03125C219.844 11.6562 223.031 15.4687 223.906 20.4688L223.531 22.625L221.375 21.7812C220.5 17.4063 217.625 14.0938 212.75 11.8438C207.938 9.59375 203.125 8.46875 198.312 8.46875C189 8.46875 181.594 11.8438 176.094 18.5938C170.656 25.3438 167.938 34.4375 167.938 45.875V60.0312C167.938 71.5312 170.656 80.6562 176.094 87.4062C181.594 94.1562 189 97.5312 198.312 97.5312C203 97.5312 207.781 96.125 212.656 93.3125C217.594 90.5 221.406 86.2188 224.094 80.4688L225.875 78.125L226.531 80.8438ZM179.562 15.0312C179.625 14.9688 179.688 14.9062 179.75 14.8438L193.438 28.5312L193.344 28.7188L179.562 15.0312ZM193.344 28.7188C193.281 28.6563 193.219 28.5937 193.156 28.5312L211.344 10.4375L211.438 10.625L193.344 28.7188ZM193.344 28.7188C193.344 28.6563 193.375 28.5937 193.438 28.5312L210.312 40.4375L210.219 40.625L193.344 28.7188ZM210.219 40.625C210.156 40.5625 210.094 40.5 210.031 40.4375L220.25 18.4062L220.344 18.5938L210.219 40.625ZM193.344 28.7188C193.281 28.6563 193.25 28.5937 193.25 28.5312L220.344 18.4062V18.5938L193.344 28.7188ZM193.344 28.7188C193.344 28.6563 193.375 28.5937 193.438 28.5312L207.594 63.2188L207.5 63.4062L193.344 28.7188ZM207.5 63.4062C207.438 63.3438 207.375 63.2812 207.312 63.2188L210.031 40.4375L210.219 40.625L207.5 63.4062ZM210.219 40.625C210.281 40.5625 210.312 40.5 210.312 40.4375L220.531 54.6875L220.344 54.7812L210.219 40.625ZM220.344 54.7812C220.406 54.7188 220.469 54.6875 220.531 54.6875V18.4062L220.344 18.5938V54.7812ZM207.406 63.2188C207.344 63.1562 207.312 63.125 207.312 63.125L220.25 54.6875L220.344 54.7812L207.406 63.2188ZM220.344 54.7812C220.406 54.7188 220.469 54.6875 220.531 54.6875L224.562 83.4688L224.375 83.6562L220.344 54.7812ZM207.5 63.4062C207.5 63.3438 207.5 63.2812 207.5 63.2188L223.062 73.625V73.8125L207.5 63.4062ZM210.219 96.7812C210.156 96.7188 210.125 96.6562 210.125 96.5938L222.875 73.625L223.062 73.8125L210.219 96.7812ZM210.219 96.7812C210.281 96.7188 210.344 96.6562 210.406 96.5938L207.594 63.2188L207.5 63.4062L210.219 96.7812ZM210.219 96.7812C210.281 96.7188 210.312 96.6562 210.312 96.5938L199.531 79.25L199.344 79.4375L210.219 96.7812ZM199.344 79.4375C199.344 79.375 199.312 79.3125 199.25 79.25L207.312 63.2188L207.5 63.4062L199.344 79.4375ZM189.219 97.5312C189.156 97.4688 189.125 97.4062 189.125 97.3438L199.25 79.25L199.344 79.4375L189.219 97.5312ZM189.219 97.5312C189.156 97.4688 189.094 97.4062 189.031 97.3438L190.625 75.2188L190.812 75.3125L189.219 97.5312ZM190.812 75.3125C190.75 75.25 190.719 75.2188 190.719 75.2188L207.406 63.2188L207.5 63.4062L190.812 75.3125ZM190.812 75.3125C190.812 75.25 190.812 75.2188 190.812 75.2188L199.438 79.25L199.344 79.4375L190.812 75.3125ZM173.938 85.625C173.938 85.5625 173.906 85.5312 173.844 85.5312L190.719 75.2188L190.812 75.3125L173.938 85.625ZM167.188 65.375C167.188 65.3125 167.188 65.25 167.188 65.1875L190.812 75.2188V75.3125L167.188 65.375ZM166.719 65.375C166.719 65.3125 166.719 65.25 166.719 65.1875L207.406 63.2188L207.5 63.4062L166.719 65.375ZM167.562 65.2812C167.5 65.2188 167.438 65.1875 167.375 65.1875L178.812 50.6562L179 50.75L167.562 65.2812ZM166.719 47.75C166.781 47.6875 166.812 47.625 166.812 47.5625L179 50.6562V50.75L166.719 47.75ZM190.812 75.3125C190.812 75.25 190.844 75.2188 190.906 75.2188L179.094 50.6562L179 50.75L190.812 75.3125ZM179 50.75C179 50.6875 179 50.6562 179 50.6562L207.5 63.2188V63.4062L179 50.75ZM179 50.75C178.938 50.6875 178.875 50.6562 178.812 50.6562L193.156 28.5312L193.344 28.7188L179 50.75ZM168.031 33.125C168.031 33.0625 168.031 33 168.031 32.9375L193.25 28.5312L193.344 28.7188L168.031 33.125ZM331.531 59.9375C331.531 72.4375 327.938 82.4062 320.75 89.8438C313.625 97.2812 303.875 101 291.5 101C279.188 101 269.438 97.2812 262.25 89.8438C255.062 82.4062 251.5 72.4375 251.562 59.9375V45.9688C251.562 33.4688 255.125 23.5 262.25 16.0625C269.375 8.625 279.094 4.90625 291.406 4.90625C303.781 4.90625 313.562 8.625 320.75 16.0625C327.938 23.5 331.531 33.4688 331.531 45.9688V59.9375ZM327.594 45.875C327.594 34.5 324.406 25.4062 318.031 18.5938C311.719 11.7813 302.844 8.375 291.406 8.375C280.031 8.375 271.188 11.7813 264.875 18.5938C258.625 25.4062 255.5 34.5 255.5 45.875V59.9375C255.5 71.375 258.656 80.5 264.969 87.3125C271.281 94.125 280.156 97.5312 291.594 97.5312C303.031 97.5312 311.875 94.125 318.125 87.3125C324.438 80.5 327.594 71.375 327.594 59.9375V45.875ZM263.469 20.375C263.469 20.3125 263.469 20.25 263.469 20.1875L282.406 25.9062V26.0938L263.469 20.375ZM282.406 26.0938C282.344 26.0313 282.312 25.9687 282.312 25.9062L296 8.46875L296.188 8.65625L282.406 26.0938ZM282.406 26.0938C282.406 26.0313 282.406 25.9687 282.406 25.9062L318.031 18.4062L318.125 18.5938L282.406 26.0938ZM282.406 26.0938C282.406 26.0313 282.406 25.9687 282.406 25.9062L329.281 38.4688L329.188 38.5625L282.406 26.0938ZM329.188 38.5625C329.188 38.5 329.156 38.4688 329.094 38.4688L305.656 77.2812L305.844 77.4688L329.188 38.5625ZM305.844 77.4688C305.781 77.4062 305.75 77.3438 305.75 77.2812L327.031 67.625V67.7188L305.844 77.4688ZM305.844 77.4688C305.844 77.4062 305.875 77.3438 305.938 77.2812L315.219 91.9062L315.125 92.0938L305.844 77.4688ZM305.844 77.4688C305.781 77.4062 305.719 77.3438 305.656 77.2812L304.062 95.6562L304.25 95.8438L305.844 77.4688ZM305.844 77.4688C305.844 77.4062 305.875 77.3438 305.938 77.2812L294.5 52.8125L294.406 53L305.844 77.4688ZM294.406 53C294.344 52.9375 294.312 52.875 294.312 52.8125L329.188 38.4688V38.5625L294.406 53ZM294.406 53C294.406 52.9375 294.438 52.875 294.5 52.8125L282.5 25.9062L282.406 26.0938L294.406 53ZM282.406 26.0938C282.344 26.0313 282.281 25.9687 282.219 25.9062L268.156 54.4062L268.344 54.5938L282.406 26.0938ZM268.344 54.5938C268.344 54.5312 268.375 54.4688 268.438 54.4062L255.125 38.4688L255.031 38.5625L268.344 54.5938ZM268.344 54.5938C268.344 54.5312 268.344 54.4688 268.344 54.4062L287 67.625L286.906 67.7188L268.344 54.5938ZM286.906 67.7188C286.844 67.6562 286.812 67.625 286.812 67.625L294.219 52.8125L294.406 53L286.906 67.7188ZM286.906 67.7188C286.969 67.6562 287 67.625 287 67.625L305.844 77.2812V77.4688L286.906 67.7188ZM286.906 67.7188C286.969 67.6562 287.031 67.625 287.094 67.625L304.344 95.6562L304.25 95.8438L286.906 67.7188ZM286.906 67.7188C286.844 67.6562 286.781 67.625 286.719 67.625L282.219 96.5L282.406 96.6875L286.906 67.7188ZM255.781 65.1875C255.781 65.125 255.781 65.0625 255.781 65L286.906 67.625V67.7188L255.781 65.1875ZM255.781 65.1875C255.719 65.125 255.688 65.0625 255.688 65L268.156 54.4062L268.344 54.5938L255.781 65.1875Z" fill="#FF0000"/>
</svg>
